<svg width="260" height="260" viewBox="0 0 260 260" fill="none" xmlns="http://www.w3.org/2000/svg">
<rect width="260" height="260" rx="56" fill="#242424"/>
<rect width="260" height="260" rx="56" fill="url(#paint0_linear_1107_117)" fill-opacity="0.2" style="mix-blend-mode:soft-light"/>
<rect width="260" height="260" rx="56" fill="#232323"/>
<rect width="260" height="260" rx="56" fill="url(#paint1_linear_1107_117)" fill-opacity="0.32" style="mix-blend-mode:soft-light"/>
<g filter="url(#filter0_d_1107_117)">
<path fill-rule="evenodd" clip-rule="evenodd" d="M44.0004 168.659L53.3815 162.981C59.1749 159.475 65.9532 162.285 71.2995 166.441C73.4978 168.15 76.1756 169.183 79.7296 169.183C87.7867 169.183 92.8663 166.032 92.8663 153.772V82.4019C92.8663 75.7745 98.2389 70.4019 104.866 70.4019H105.386C112.014 70.4019 117.386 75.7745 117.386 82.4019V154.119C117.386 179.515 102.5 191.075 80.7807 191.075C61.1657 191.075 49.7796 180.916 44 168.656" fill="url(#paint2_linear_1107_117)"/>
<path fill-rule="evenodd" clip-rule="evenodd" d="M44.0004 168.659L53.3815 162.981C59.1749 159.475 65.9532 162.285 71.2995 166.441C73.4978 168.15 76.1756 169.183 79.7296 169.183C87.7867 169.183 92.8663 166.032 92.8663 153.772V82.4019C92.8663 75.7745 98.2389 70.4019 104.866 70.4019H105.386C112.014 70.4019 117.386 75.7745 117.386 82.4019V154.119C117.386 179.515 102.5 191.075 80.7807 191.075C61.1657 191.075 49.7796 180.916 44 168.656" fill="url(#paint3_radial_1107_117)" fill-opacity="0.8"/>
<path fill-rule="evenodd" clip-rule="evenodd" d="M44.0004 168.659L53.3815 162.981C59.1749 159.475 65.9532 162.285 71.2995 166.441C73.4978 168.15 76.1756 169.183 79.7296 169.183C87.7867 169.183 92.8663 166.032 92.8663 153.772V82.4019C92.8663 75.7745 98.2389 70.4019 104.866 70.4019H105.386C112.014 70.4019 117.386 75.7745 117.386 82.4019V154.119C117.386 179.515 102.5 191.075 80.7807 191.075C61.1657 191.075 49.7796 180.916 44 168.656" fill="url(#paint4_radial_1107_117)" fill-opacity="0.8"/>
<path fill-rule="evenodd" clip-rule="evenodd" d="M44.0004 168.659L53.3815 162.981C59.1749 159.475 65.9532 162.285 71.2995 166.441C73.4978 168.15 76.1756 169.183 79.7296 169.183C87.7867 169.183 92.8663 166.032 92.8663 153.772V82.4019C92.8663 75.7745 98.2389 70.4019 104.866 70.4019H105.386C112.014 70.4019 117.386 75.7745 117.386 82.4019V154.119C117.386 179.515 102.5 191.075 80.7807 191.075C61.1657 191.075 49.7796 180.916 44 168.656" fill="url(#paint5_radial_1107_117)" fill-opacity="0.8"/>
<path fill-rule="evenodd" clip-rule="evenodd" d="M137.038 175.403C132.829 170.629 135.021 163.532 140.529 160.343V160.343C146.165 157.08 153.102 159.267 158.055 163.494C162.304 167.12 167.639 169.359 174.841 169.359C185.001 169.359 191.479 164.28 191.479 157.274C191.479 148.867 184.824 145.889 173.614 140.986L167.486 138.357C149.795 130.827 138.06 121.37 138.06 101.403C138.06 83.0123 152.071 69 173.966 69C185.87 69 195.22 72.1667 202.563 79.9817C206.666 84.3496 204.87 91.1527 199.827 94.3912V94.3912C194.353 97.9064 187.499 95.1858 181.761 92.1196C179.501 90.9116 176.957 90.369 173.966 90.369C166.785 90.369 162.231 94.9227 162.231 100.877C162.231 108.233 166.785 111.211 177.293 115.765L183.422 118.392C204.265 127.325 216 136.432 216 156.923C216 178.993 198.661 191.077 175.367 191.077C157.96 191.077 145.262 184.731 137.038 175.403Z" fill="url(#paint6_linear_1107_117)"/>
<path fill-rule="evenodd" clip-rule="evenodd" d="M137.038 175.403C132.829 170.629 135.021 163.532 140.529 160.343V160.343C146.165 157.08 153.102 159.267 158.055 163.494C162.304 167.12 167.639 169.359 174.841 169.359C185.001 169.359 191.479 164.28 191.479 157.274C191.479 148.867 184.824 145.889 173.614 140.986L167.486 138.357C149.795 130.827 138.06 121.37 138.06 101.403C138.06 83.0123 152.071 69 173.966 69C185.87 69 195.22 72.1667 202.563 79.9817C206.666 84.3496 204.87 91.1527 199.827 94.3912V94.3912C194.353 97.9064 187.499 95.1858 181.761 92.1196C179.501 90.9116 176.957 90.369 173.966 90.369C166.785 90.369 162.231 94.9227 162.231 100.877C162.231 108.233 166.785 111.211 177.293 115.765L183.422 118.392C204.265 127.325 216 136.432 216 156.923C216 178.993 198.661 191.077 175.367 191.077C157.96 191.077 145.262 184.731 137.038 175.403Z" fill="url(#paint7_radial_1107_117)" fill-opacity="0.8"/>
<path fill-rule="evenodd" clip-rule="evenodd" d="M137.038 175.403C132.829 170.629 135.021 163.532 140.529 160.343V160.343C146.165 157.08 153.102 159.267 158.055 163.494C162.304 167.12 167.639 169.359 174.841 169.359C185.001 169.359 191.479 164.28 191.479 157.274C191.479 148.867 184.824 145.889 173.614 140.986L167.486 138.357C149.795 130.827 138.06 121.37 138.06 101.403C138.06 83.0123 152.071 69 173.966 69C185.87 69 195.22 72.1667 202.563 79.9817C206.666 84.3496 204.87 91.1527 199.827 94.3912V94.3912C194.353 97.9064 187.499 95.1858 181.761 92.1196C179.501 90.9116 176.957 90.369 173.966 90.369C166.785 90.369 162.231 94.9227 162.231 100.877C162.231 108.233 166.785 111.211 177.293 115.765L183.422 118.392C204.265 127.325 216 136.432 216 156.923C216 178.993 198.661 191.077 175.367 191.077C157.96 191.077 145.262 184.731 137.038 175.403Z" fill="url(#paint8_radial_1107_117)" fill-opacity="0.8"/>
<path fill-rule="evenodd" clip-rule="evenodd" d="M137.038 175.403C132.829 170.629 135.021 163.532 140.529 160.343V160.343C146.165 157.08 153.102 159.267 158.055 163.494C162.304 167.12 167.639 169.359 174.841 169.359C185.001 169.359 191.479 164.28 191.479 157.274C191.479 148.867 184.824 145.889 173.614 140.986L167.486 138.357C149.795 130.827 138.06 121.37 138.06 101.403C138.06 83.0123 152.071 69 173.966 69C185.87 69 195.22 72.1667 202.563 79.9817C206.666 84.3496 204.87 91.1527 199.827 94.3912V94.3912C194.353 97.9064 187.499 95.1858 181.761 92.1196C179.501 90.9116 176.957 90.369 173.966 90.369C166.785 90.369 162.231 94.9227 162.231 100.877C162.231 108.233 166.785 111.211 177.293 115.765L183.422 118.392C204.265 127.325 216 136.432 216 156.923C216 178.993 198.661 191.077 175.367 191.077C157.96 191.077 145.262 184.731 137.038 175.403Z" fill="url(#paint9_radial_1107_117)" fill-opacity="0.8"/>
</g>
<defs>
<filter id="filter0_d_1107_117" x="20" y="61" width="220" height="170.077" filterUnits="userSpaceOnUse" color-interpolation-filters="sRGB">
<feFlood flood-opacity="0" result="BackgroundImageFix"/>
<feColorMatrix in="SourceAlpha" type="matrix" values="0 0 0 0 0 0 0 0 0 0 0 0 0 0 0 0 0 0 127 0" result="hardAlpha"/>
<feOffset dy="16"/>
<feGaussianBlur stdDeviation="12"/>
<feColorMatrix type="matrix" values="0 0 0 0 0.0980392 0 0 0 0 0.0980392 0 0 0 0 0.172549 0 0 0 0.64 0"/>
<feBlend mode="normal" in2="BackgroundImageFix" result="effect1_dropShadow_1107_117"/>
<feBlend mode="normal" in="SourceGraphic" in2="effect1_dropShadow_1107_117" result="shape"/>
</filter>
<linearGradient id="paint0_linear_1107_117" x1="130" y1="0" x2="130" y2="260" gradientUnits="userSpaceOnUse">
<stop offset="0.328125" stop-color="white"/>
<stop offset="1" stop-color="#1B1A1A"/>
</linearGradient>
<linearGradient id="paint1_linear_1107_117" x1="59" y1="-205.5" x2="130" y2="260" gradientUnits="userSpaceOnUse">
<stop stop-color="white"/>
<stop offset="0.950495" stop-color="#1B1A1A"/>
</linearGradient>
<linearGradient id="paint2_linear_1107_117" x1="216" y1="56.1731" x2="116.361" y2="235.477" gradientUnits="userSpaceOnUse">
<stop stop-color="#683DDB"/>
<stop offset="0.527788" stop-color="#8C31FF"/>
<stop offset="1" stop-color="#DC02FF"/>
</linearGradient>
<radialGradient id="paint3_radial_1107_117" cx="0" cy="0" r="1" gradientUnits="userSpaceOnUse" gradientTransform="translate(90.6441 42.4615) rotate(98.6442) scale(150.323 349.089)">
<stop stop-color="#52B6FF"/>
<stop offset="1" stop-color="#8F41EE" stop-opacity="0"/>
</radialGradient>
<radialGradient id="paint4_radial_1107_117" cx="0" cy="0" r="1" gradientUnits="userSpaceOnUse" gradientTransform="translate(89.9153 76.0769) rotate(53.3936) scale(67.2208 223.873)">
<stop stop-color="#9DD6FF"/>
<stop offset="1" stop-color="#8F41EE" stop-opacity="0"/>
</radialGradient>
<radialGradient id="paint5_radial_1107_117" cx="0" cy="0" r="1" gradientUnits="userSpaceOnUse" gradientTransform="translate(297.627 162.327) rotate(153.002) scale(132.508 155.616)">
<stop stop-color="#5263FF"/>
<stop offset="1" stop-color="#8F41EE" stop-opacity="0"/>
</radialGradient>
<linearGradient id="paint6_linear_1107_117" x1="216" y1="56.1731" x2="116.361" y2="235.477" gradientUnits="userSpaceOnUse">
<stop stop-color="#683DDB"/>
<stop offset="0.527788" stop-color="#8C31FF"/>
<stop offset="1" stop-color="#DC02FF"/>
</linearGradient>
<radialGradient id="paint7_radial_1107_117" cx="0" cy="0" r="1" gradientUnits="userSpaceOnUse" gradientTransform="translate(90.6441 42.4615) rotate(98.6442) scale(150.323 349.089)">
<stop stop-color="#52B6FF"/>
<stop offset="1" stop-color="#8F41EE" stop-opacity="0"/>
</radialGradient>
<radialGradient id="paint8_radial_1107_117" cx="0" cy="0" r="1" gradientUnits="userSpaceOnUse" gradientTransform="translate(89.9153 76.0769) rotate(53.3936) scale(67.2208 223.873)">
<stop stop-color="#9DD6FF"/>
<stop offset="1" stop-color="#8F41EE" stop-opacity="0"/>
</radialGradient>
<radialGradient id="paint9_radial_1107_117" cx="0" cy="0" r="1" gradientUnits="userSpaceOnUse" gradientTransform="translate(297.627 162.327) rotate(153.002) scale(132.508 155.616)">
<stop stop-color="#5263FF"/>
<stop offset="1" stop-color="#8F41EE" stop-opacity="0"/>
</radialGradient>
</defs>
</svg>
